<?xml version="1.0" encoding="utf-8"?><svg xmlns="http://www.w3.org/2000/svg" xmlns:xlink="http://www.w3.org/1999/xlink"><symbol viewBox="-271.25 391.027 17.106 13.411" id="icon-arrow" xmlns="http://www.w3.org/2000/svg"><path d="M-260.79 391.027l-1.424 1.405 4.097 4.151h-13.133v2h13.446l-4.456 4.437 1.411 1.418 6.705-6.677z"/></symbol><symbol viewBox="0 0 41.333 41.417" id="icon-check" xmlns="http://www.w3.org/2000/svg"><path class="bcls-1" d="M28.123 19.71l-.663-.748-5.549 4.918a.563.563 0 0 1-.747 0l-5.548-4.918-.663.748 6 5.322a.878.878 0 0 0 1.166 0z"/></symbol><symbol viewBox="0 0 24.667 22.125" id="icon-collection" xmlns="http://www.w3.org/2000/svg"><path class="ccls-1" d="M16.917 13.875h-15.5v-11h15.5zm-13.5-2h11.5v-7h-11.5z"/><path class="ccls-1" d="M19.917 16.875h-14.5v-2h12.5v-8h2v10z"/><path class="ccls-1" d="M22.917 19.875h-14.5v-2h12.5v-8h2v10z"/></symbol><symbol viewBox="0 0 49.652 49.652" id="icon-fb" xmlns="http://www.w3.org/2000/svg"><path d="M24.826 0C11.137 0 0 11.137 0 24.826c0 13.688 11.137 24.826 24.826 24.826 13.688 0 24.826-11.138 24.826-24.826C49.652 11.137 38.516 0 24.826 0zM31 25.7h-4.039v14.396h-5.985V25.7h-2.845v-5.088h2.845v-3.291c0-2.357 1.12-6.04 6.04-6.04l4.435.017v4.939h-3.219c-.524 0-1.269.262-1.269 1.386v2.99h4.56L31 25.7z"/></symbol><symbol viewBox="0 0 49.652 49.652" id="icon-google-plus" xmlns="http://www.w3.org/2000/svg"><path d="M21.5 28.94c-.161-.107-.326-.223-.499-.34a5.66 5.66 0 0 0-1.584-.241h-.066c-2.514 0-4.718 1.521-4.718 3.257 0 1.89 1.889 3.367 4.299 3.367 3.179 0 4.79-1.098 4.79-3.258 0-.204-.024-.416-.075-.629-.215-.838-.984-1.361-2.147-2.156zM19.719 22.352h.002c.601 0 1.108-.237 1.501-.687.616-.702.889-1.854.727-3.077-.285-2.186-1.848-4.006-3.479-4.053l-.065-.002c-.577 0-1.092.238-1.483.686-.607.693-.864 1.791-.705 3.012.286 2.184 1.882 4.071 3.479 4.121h.023z"/><path d="M24.826 0C11.137 0 0 11.137 0 24.826c0 13.688 11.137 24.826 24.826 24.826 13.688 0 24.826-11.138 24.826-24.826C49.652 11.137 38.516 0 24.826 0zm-2.862 36.915c-.938.271-1.953.408-3.018.408-1.186 0-2.326-.136-3.389-.405-2.057-.519-3.577-1.503-4.287-2.771a3.526 3.526 0 0 1-.461-1.737c0-.623.149-1.255.443-1.881 1.127-2.402 4.098-4.018 7.389-4.018h.094a2.932 2.932 0 0 1-.396-1.472c0-.255.034-.515.102-.78-3.452-.078-6.035-2.606-6.035-5.939 0-2.353 1.881-4.646 4.571-5.572a7.458 7.458 0 0 1 2.433-.42h7.382c.251 0 .474.163.552.402a.578.578 0 0 1-.211.647l-1.651 1.195a.59.59 0 0 1-.341.108h-.591c.763.915 1.21 2.22 1.21 3.685 0 1.617-.818 3.146-2.307 4.311-1.15.896-1.195 1.143-1.195 1.654.014.281.815 1.198 1.699 1.823 2.059 1.456 2.825 2.885 2.825 5.269-.001 2.491-1.892 4.643-4.818 5.493zm16.671-12.662c0 .32-.261.58-.58.58H33.86v4.197a.58.58 0 0 1-.578.58h-1.195a.58.58 0 0 1-.582-.58v-4.197h-4.192a.58.58 0 0 1-.58-.58V23.06c0-.32.26-.582.58-.582h4.192v-4.193c0-.321.26-.58.582-.58h1.195a.58.58 0 0 1 .578.58v4.193h4.194c.319 0 .58.26.58.58v1.195z"/></symbol><symbol viewBox="0 0 49.652 49.652" id="icon-insta" xmlns="http://www.w3.org/2000/svg"><path d="M24.825 29.796a4.978 4.978 0 0 0 4.972-4.97 4.954 4.954 0 0 0-.94-2.897 4.964 4.964 0 0 0-4.029-2.073c-1.659 0-3.126.82-4.031 2.072a4.947 4.947 0 0 0-.94 2.897 4.973 4.973 0 0 0 4.968 4.971zM35.678 18.746V13.96l-.623.002-4.164.013.016 4.787z"/><path d="M24.826 0C11.137 0 0 11.137 0 24.826c0 13.688 11.137 24.826 24.826 24.826 13.688 0 24.826-11.138 24.826-24.826C49.652 11.137 38.516 0 24.826 0zm14.119 21.929v11.56a5.463 5.463 0 0 1-5.457 5.458H16.164a5.462 5.462 0 0 1-5.457-5.458V16.165a5.462 5.462 0 0 1 5.457-5.457h17.323a5.463 5.463 0 0 1 5.458 5.457v5.764z"/><path d="M32.549 24.826c0 4.257-3.464 7.723-7.723 7.723s-7.722-3.466-7.722-7.723a7.67 7.67 0 0 1 .568-2.897h-4.215v11.56a2.706 2.706 0 0 0 2.706 2.704h17.323a2.707 2.707 0 0 0 2.706-2.704v-11.56h-4.217c.367.894.574 1.873.574 2.897z"/></symbol><symbol viewBox="0 0 47.667 50" id="icon-loader" xmlns="http://www.w3.org/2000/svg"><circle class="gcls-1" cx="25.433" cy="8.376" r="6.376"/><circle class="gcls-1" cx="9.789" cy="17.408" r="5.844" transform="rotate(-60 9.789 17.408)"/><circle class="gcls-1" cx="9.789" cy="35.473" r="5.018" transform="rotate(-30 9.789 35.473)"/><circle class="gcls-1" cx="25.433" cy="44.505" r="4.251"/><circle class="gcls-1" cx="41.078" cy="35.473" r="3.483" transform="rotate(-60 41.078 35.473)"/><circle class="gcls-1" cx="41.078" cy="17.408" r="2.657" transform="rotate(-30 41.077 17.409)"/></symbol><symbol viewBox="0 0 47.667 50" id="icon-location" xmlns="http://www.w3.org/2000/svg"><rect class="hcls-1" x=".833" y="2" width="46" height="46" rx="7.375" ry="7.375"/><path class="hcls-2" d="M39.833 25.883h-2.282a13.28 13.28 0 0 0-12.19-12.189v-2.283h-2.067v2.283a13.279 13.279 0 0 0-12.189 12.189H8.822v2.067h2.283a13.279 13.279 0 0 0 12.189 12.19v2.282h2.067V40.14a13.279 13.279 0 0 0 12.19-12.19h2.282zM24.328 38.192A11.275 11.275 0 1 1 35.6 26.917a11.288 11.288 0 0 1-11.272 11.275z"/><circle class="hcls-2" cx="24.328" cy="26.917" r="6.727"/></symbol><symbol viewBox="0 0 40 40" id="icon-loupe" xmlns="http://www.w3.org/2000/svg"><path class="icls-1" d="M20.176 10.553h-2v6.595h-6.595v2h6.595v6.595h2v-6.595h6.595v-2h-6.595v-6.595z"/><path class="icls-1" d="M39.444 37.163l-7.408-7.408a17.368 17.368 0 1 0-1.422 1.406l7.416 7.416zM3.825 18.148A15.351 15.351 0 1 1 19.176 33.5 15.368 15.368 0 0 1 3.825 18.148z"/></symbol><symbol viewBox="0 0 43.75 54.375" id="icon-man" xmlns="http://www.w3.org/2000/svg"><path class="jcls-1" d="M32.752 29.366l-5.986-13.148a2.078 2.078 0 0 0-1.672-1.2 2.533 2.533 0 0 0-.579-.072h-5.833a2.537 2.537 0 0 0-.57.069 2.078 2.078 0 0 0-1.711 1.2l-5.985 13.151c-.474 1.042-.254 1.647.527 2.146a3.041 3.041 0 0 0 3.647-1.269l1.4-3.076v20.266a2.567 2.567 0 0 0 5.134 0V35.5h.7v12.1a2.567 2.567 0 0 0 5.134 0l.012-20.557 1.608 3.2a3.041 3.041 0 0 0 3.647 1.269c.781-.499 1.001-1.105.527-2.146z"/><circle class="jcls-1" cx="21.584" cy="9.063" r="4.792"/></symbol><symbol viewBox="0 0 41.333 41.417" id="icon-more" xmlns="http://www.w3.org/2000/svg"><path class="kcls-1" d="M20.68 2.844a18 18 0 1 1-18 18 18.02 18.02 0 0 1 18-18m0-2a20 20 0 1 0 20 20 20 20 0 0 0-20-20z"/><path class="kcls-1" d="M23.21 14.444l-1.424 1.405L25.883 20H12.75v2h13.446l-4.456 4.437 1.411 1.418 6.705-6.677-6.646-6.734z"/></symbol><symbol viewBox="0 0 40 52" id="icon-pin" xmlns="http://www.w3.org/2000/svg"><path class="lcls-1" fill="#b0ca1f" d="M19.387 50.693C11.11 39.764.58 31.783 1.013 19.346A19 19 0 0 1 39 20.084c0 11.93-10.276 19.9-18.388 30.609a.765.765 0 0 1-1.225 0z"/><path class="lcls-2" fill="#fff" d="M25.989 28.015l-5.166-6.645 4.946-4.97a1.761 1.761 0 0 0 0-2.475 1.742 1.742 0 0 0-2.464 0l-5.992 6.019V15.09a1.742 1.742 0 1 0-3.485 0v14a1.742 1.742 0 1 0 3.485 0V24.9l1.027-1.032 4.9 6.305a1.742 1.742 0 0 0 2.446.3 1.76 1.76 0 0 0 .303-2.458z"/></symbol><symbol viewBox="0 0 43.75 54.375" id="icon-pin-blue" xmlns="http://www.w3.org/2000/svg"><path class="mcls-1" fill="#7286ad" d="M20.387 51.693C12.11 40.764 1.58 32.783 2.013 20.346A19 19 0 0 1 40 21.084c0 11.93-10.276 19.9-18.388 30.609a.765.765 0 0 1-1.225 0z"/><path class="mcls-2" fill="#fff" d="M26.989 29.015l-5.166-6.645 4.946-4.97a1.761 1.761 0 0 0 0-2.475 1.742 1.742 0 0 0-2.464 0l-5.992 6.019V16.09a1.742 1.742 0 1 0-3.485 0v14a1.742 1.742 0 1 0 3.485 0V25.9l1.027-1.032 4.9 6.305a1.742 1.742 0 0 0 2.446.3 1.76 1.76 0 0 0 .303-2.458z"/></symbol><symbol viewBox="0 0 21.75 20.333" id="icon-rating" xmlns="http://www.w3.org/2000/svg"><path class="ncls-1" d="M4.748 19.99l.67-6.875L.807 7.972l6.745-1.487L11.018.511l3.5 5.955 6.753 1.45-4.583 5.167.708 6.87-6.331-2.761zm-.165-10.8l2.911 3.245-.423 4.34 3.986-1.766 4 1.743-.446-4.337L17.5 9.152l-4.263-.915-2.209-3.759-2.187 3.771z"/></symbol><symbol viewBox="0 0 21.75 20.333" id="icon-rating-filled" xmlns="http://www.w3.org/2000/svg"><path class="ocls-1" d="M16.224 18.352L11.061 16.1 5.91 18.381l.546-5.607L2.695 8.58l5.501-1.213 2.827-4.873 2.854 4.857 5.507 1.183-3.737 4.215.577 5.603z"/><path class="ocls-1" d="M4.748 19.99l.67-6.875L.807 7.972l6.745-1.487L11.018.511l3.5 5.955 6.753 1.45-4.583 5.167.708 6.87-6.331-2.761zm-.165-10.8l2.911 3.245-.423 4.34 3.986-1.766 4 1.743-.446-4.337L17.5 9.152l-4.263-.915-2.209-3.759-2.187 3.771z"/></symbol><symbol viewBox="0 0 49.652 49.652" id="icon-twitter" xmlns="http://www.w3.org/2000/svg"><path d="M24.826 0C11.137 0 0 11.137 0 24.826c0 13.688 11.137 24.826 24.826 24.826 13.688 0 24.826-11.138 24.826-24.826C49.652 11.137 38.516 0 24.826 0zm11.075 19.144c.011.246.017.494.017.742 0 7.551-5.746 16.255-16.259 16.255-3.227 0-6.231-.943-8.759-2.565.447.053.902.08 1.363.08 2.678 0 5.141-.914 7.097-2.446a5.72 5.72 0 0 1-5.338-3.969 5.76 5.76 0 0 0 2.58-.096 5.715 5.715 0 0 1-4.583-5.603l.001-.072a5.69 5.69 0 0 0 2.587.714 5.71 5.71 0 0 1-2.541-4.755c0-1.048.281-2.03.773-2.874a16.225 16.225 0 0 0 11.777 5.972 5.707 5.707 0 0 1-.147-1.303 5.714 5.714 0 0 1 9.884-3.91 11.406 11.406 0 0 0 3.63-1.387 5.74 5.74 0 0 1-2.516 3.162 11.36 11.36 0 0 0 3.282-.899 11.494 11.494 0 0 1-2.848 2.954z"/></symbol><symbol viewBox="0 0 97.75 97.75" id="icon-vk" xmlns="http://www.w3.org/2000/svg"><path d="M48.875 0C21.883 0 0 21.882 0 48.875S21.883 97.75 48.875 97.75 97.75 75.868 97.75 48.875 75.867 0 48.875 0zm24.792 54.161c2.278 2.225 4.688 4.319 6.733 6.774.906 1.086 1.76 2.209 2.41 3.472.928 1.801.09 3.776-1.522 3.883l-10.013-.002c-2.586.214-4.644-.829-6.379-2.597-1.385-1.409-2.67-2.914-4.004-4.371-.545-.598-1.119-1.161-1.803-1.604-1.365-.888-2.551-.616-3.333.81-.797 1.451-.979 3.059-1.055 4.674-.109 2.361-.821 2.978-3.19 3.089-5.062.237-9.865-.531-14.329-3.083-3.938-2.251-6.986-5.428-9.642-9.025-5.172-7.012-9.133-14.708-12.692-22.625-.801-1.783-.215-2.737 1.752-2.774 3.268-.063 6.536-.055 9.804-.003 1.33.021 2.21.782 2.721 2.037 1.766 4.345 3.931 8.479 6.644 12.313.723 1.021 1.461 2.039 2.512 2.76 1.16.796 2.044.533 2.591-.762.35-.823.501-1.703.577-2.585.26-3.021.291-6.041-.159-9.05-.28-1.883-1.339-3.099-3.216-3.455-.956-.181-.816-.535-.351-1.081.807-.944 1.563-1.528 3.074-1.528l11.313-.002c1.783.35 2.183 1.15 2.425 2.946l.01 12.572c-.021.695.349 2.755 1.597 3.21 1 .33 1.66-.472 2.258-1.105 2.713-2.879 4.646-6.277 6.377-9.794.764-1.551 1.423-3.156 2.063-4.764.476-1.189 1.216-1.774 2.558-1.754l10.894.013c.321 0 .647.003.965.058 1.836.314 2.339 1.104 1.771 2.895-.894 2.814-2.631 5.158-4.329 7.508-1.82 2.516-3.761 4.944-5.563 7.471-1.656 2.31-1.525 3.473.531 5.479z"/></symbol></svg>