<!-- Generated by IcoMoon.io -->
<svg version="1.1" xmlns="http://www.w3.org/2000/svg" width="1568" height="1024" viewBox="0 0 1568 1024">
<title></title>
<g id="icomoon-ignore">
</g>
<path fill="#fff" d="M1195.422 765.103c-1.523 0.077-3.305 0.118-5.099 0.118-60.473 0-109.497-49.023-109.497-109.497s49.023-109.497 109.497-109.497c1.88 0 3.751 0.046 5.608 0.142l-0.26-0.012c58.127 2.929 104.149 50.774 104.149 109.365 0 58.679-46.159 106.579-104.149 109.367l-0.251 0.009zM264.833 655.857c-0.077-1.523-0.118-3.305-0.118-5.099 0-60.473 49.023-109.497 109.497-109.497s109.497 49.023 109.497 109.497c0 1.88-0.046 3.751-0.142 5.608l0.012-0.26c-2.929 58.127-50.774 104.149-109.365 104.149-58.679 0-106.579-46.159-109.367-104.149l-0.009-0.251zM430.946 180.707c141.92-93.284 564.44-93.284 706.111 0 27.686 17.958 63.103 91.040 95.529 180.582h-897.169c32.425-89.543 67.843-162.624 95.529-180.582zM1499.217 316.891c-6.984-8.73-17.71-13.718-28.684-13.718h-140.924c-34.67-91.539-79.815-181.58-131.445-215.252-177.839-117.228-650.241-117.228-828.328 0-51.382 33.672-96.527 123.713-131.445 215.252h-140.674c-0.005 0-0.009 0-0.014 0-20.525 0-37.163 16.64-37.163 37.163 0 2.648 0.276 5.234 0.803 7.725l-0.042-0.244 20.952 101.016c3.491 17.211 18.706 29.431 36.167 29.431h41.654c-37.212 43.376-59.865 100.189-59.865 162.294 0 0.467 0.002 0.933 0.005 1.4v-0.072c-0.037 1.571-0.058 3.421-0.058 5.278 0 70.363 29.701 133.789 77.248 178.426l0.13 0.121 1.745 1.246v141.672c0 30.429 24.692 55.372 55.372 55.372h129.948c30.68 0 55.62-24.942 55.62-55.372v-56.869h727.811v56.869c0 30.429 24.692 55.372 55.62 55.372h129.699c30.68 0 55.62-24.942 55.62-55.372v-138.928c48.703-45.354 79.070-109.845 79.070-181.427 0-0.492-0.002-0.984-0.005-1.474v0.074c0.248-60.36-20.203-121.218-62.855-168.61h44.398c17.459 0 32.674-12.223 36.415-29.431l20.702-101.016c2.244-10.974-0.499-22.199-7.483-30.928z"></path>
</svg>
