<!-- Generated by IcoMoon.io -->
<svg version="1.1" xmlns="http://www.w3.org/2000/svg" width="1568" height="1024" viewBox="0 0 1568 1024">
<title></title>
<g id="icomoon-ignore">
</g>
<path fill="#fff" d="M212.607 95.946c-25.533 0-47.84 22.307-47.84 47.84v739.357c0 25.533 22.307 47.84 47.84 47.84h1142.499c25.533 0 47.84-22.307 47.84-47.84v-739.357c0-25.533-22.307-47.84-47.84-47.84h-1142.499zM1358.329 1023.974h-1145.723c-0.080 0-0.175 0-0.27 0-79.263 0-143.517-64.254-143.517-143.517 0-0.19 0-0.378 0-0.568v0.030-736.134c0-79.82 63.964-143.787 143.787-143.787h1142.499c79.82 0 144.054 63.964 144.054 143.787v739.357c0.018 0.808 0.028 1.761 0.028 2.714 0 76.294-61.848 138.142-138.142 138.142-0.955 0-1.906-0.010-2.856-0.030l0.143 0.003z"></path>
<path fill="#fff" d="M116.66 403.138h1334.393v-179.264h-1334.393v179.264zM1281.463 726.186c0 58.334-47.29 105.624-105.624 105.624s-105.624-47.29-105.624-105.624v0c0-58.334 47.29-105.624 105.624-105.624s105.624 47.29 105.624 105.624v0z"></path>
<path fill="#fff" d="M1140.635 726.186c0 58.334-47.29 105.624-105.624 105.624s-105.624-47.29-105.624-105.624v0c0-58.334 47.29-105.624 105.624-105.624s105.624 47.29 105.624 105.624v0zM601.77 524.618h-461.193c-14.513 0-23.92-9.139-23.92-23.115s9.406-23.382 23.92-23.382h461.193c14.243 0 23.65 9.406 23.65 23.382 0 9.139-9.406 23.115-23.65 23.115zM555.276 609.545h-439.691c-13.706 0-22.577-9.406-22.577-23.382s8.869-23.115 22.577-23.115h439.691c13.706 0 22.577 9.139 22.577 23.115 0 9.406-8.869 23.382-22.577 23.382z"></path>
</svg>
