<!-- Generated by IcoMoon.io -->
<svg version="1.1" xmlns="http://www.w3.org/2000/svg" width="1568" height="1024" viewBox="0 0 1568 1024">
<title></title>
<g id="icomoon-ignore">
</g>
<path fill="#000" d="M1447.656 541.094l-105.692-468.554c-10.011-41.882-47.124-72.539-91.396-72.539-7.082 0-13.982 0.784-20.617 2.272l0.625-0.119-930.962 210.246c-24.718 5.66-45.227 20.591-58.089 40.851l-0.225 0.377c-11.163 17.768-20.956 102.96-18.679 123.688h197.262c4.555-13.212 12.757-91.115 13.668-105.465l701.81-158.31c27.489 49.434 79.414 82.33 139.020 82.33 1.978 0 3.947-0.036 5.906-0.108l-0.284 0.008 58.996 260.587c-13.439 5.694-93.164 35.762-104.098 44.646v190.884l142.594-39.408c41.791-9.88 72.41-46.867 72.41-91.004 0-7.224-0.82-14.257-2.372-21.011l0.121 0.627z"></path>
<path fill="#000" d="M1171.35 824.232c-59.405 11.485-106.387 54.82-122.949 111.176l-0.282 1.123h-719.349c-16.75-57.534-63.778-100.916-122.239-112.14l-0.992-0.159v-267.192c59.378-11.396 106.362-54.659 122.949-110.949l0.284-1.121h719.349c17.057 57.298 63.952 100.473 122.224 111.905l1.009 0.165v267.192zM1165.655 357.499h-954.425c0 0 0 0 0 0-51.374 0-93.035 41.581-93.164 92.925v480.412c0 51.48 41.685 93.164 93.164 93.164h954.425c51.251 0 93.164-41.685 93.164-93.164v-480.399c0-51.48-41.913-92.935-93.164-92.935z"></path>
<path fill="#000" d="M688.446 441.324c-2.213-0.070-4.814-0.11-7.425-0.11-137.88 0-249.653 111.773-249.653 249.653s111.773 249.653 249.653 249.653c2.692 0 5.374-0.042 8.042-0.127l-0.39 0.011c134.548-4.256 241.999-114.347 241.999-249.535 0-135.269-107.581-245.41-241.849-249.533l-0.379-0.008zM1058.595 357.499h-472.427c34.403-99.301 127.131-169.324 236.214-169.324s201.811 70.023 235.684 167.573l0.53 1.751z"></path>
</svg>
