<svg xmlns="http://www.w3.org/2000/svg" width="44" height="44" viewBox="0 0 44 44">
    <path fill="#000" fill-rule="evenodd" d="M24.502 12c-2.425 0-3.993 1.738-3.993 4.43v2.042h-2.17c-.187 0-.339.164-.339.367v2.96c0 .202.152.366.339.366h2.17v7.469c0 .202.153.366.34.366h2.832c.188 0 .34-.164.34-.366v-7.47h2.537c.188 0 .34-.163.34-.366l.001-2.959a.385.385 0 0 0-.1-.26.328.328 0 0 0-.24-.107H24.02V16.74c0-.832.183-1.255 1.186-1.255l1.453-.001c.188 0 .34-.164.34-.366V12.37c0-.204-.152-.367-.338-.368L24.502 12z"/>
</svg>
