<svg xmlns="http://www.w3.org/2000/svg" xmlns:xlink="http://www.w3.org/1999/xlink" width="44" height="44" viewBox="0 0 44 44">
    <defs>
        <path id="a" d="M17.9 9.05V.1H0V18h17.9z"/>
    </defs>
    <g fill="none" fill-rule="evenodd">
        <g transform="translate(13 12.033)">
            <mask id="b" fill="#fff">
                <use xlink:href="#a"/>
            </mask>
            <path fill="#000" d="M16.313 13.06a3.355 3.355 0 0 1-3.352 3.352H4.94a3.355 3.355 0 0 1-3.352-3.352V5.04A3.355 3.355 0 0 1 4.94 1.686h8.02a3.355 3.355 0 0 1 3.352 3.352v8.021zM12.96.1H4.94A4.945 4.945 0 0 0 0 5.04v8.02A4.945 4.945 0 0 0 4.94 18h8.02a4.946 4.946 0 0 0 4.94-4.94V5.04A4.945 4.945 0 0 0 12.96.1z" mask="url(#b)"/>
        </g>
        <path fill="#000" d="M21.95 24.107a3.028 3.028 0 0 1-3.024-3.024 3.028 3.028 0 0 1 3.024-3.025 3.028 3.028 0 0 1 3.025 3.025 3.028 3.028 0 0 1-3.025 3.024m-4.612-3.024a4.618 4.618 0 0 0 4.612 4.612 4.618 4.618 0 0 0 4.613-4.612 4.618 4.618 0 0 0-4.613-4.612 4.618 4.618 0 0 0-4.612 4.612zM26.756 15.124a1.169 1.169 0 0 0-1.164 1.165c0 .306.125.606.342.823.215.216.516.341.822.341.307 0 .607-.125.824-.34.217-.218.341-.519.341-.824a1.17 1.17 0 0 0-.34-.825 1.17 1.17 0 0 0-.825-.34"/>
    </g>
</svg>
