<?xml version="1.0" encoding="UTF-8"?> <!-- Generator: Adobe Illustrator 22.1.0, SVG Export Plug-In . SVG Version: 6.00 Build 0) --> <svg xmlns="http://www.w3.org/2000/svg" xmlns:xlink="http://www.w3.org/1999/xlink" id="Слой_1" x="0px" y="0px" viewBox="0 0 85 85" style="enable-background:new 0 0 85 85;" xml:space="preserve"> <style type="text/css"> .st0{fill:none;stroke:#000000;stroke-width:0.5982;stroke-miterlimit:10;} .st1{fill:none;stroke:#000000;stroke-width:0.6475;stroke-miterlimit:10;} .st2{fill:none;stroke:#000000;stroke-miterlimit:10;} .st3{opacity:0;fill:#FFFFFF;} .st4{fill:none;stroke:#000000;stroke-width:0.6;stroke-miterlimit:10;} .st5{fill:none;stroke:#000000;stroke-width:0.7055;stroke-miterlimit:10;} </style> <g> <path class="st0" d="M35.4,26.9l0-7c0-0.6,0.5-1.2,1.2-1.2h12c0.6,0,1.2,0.5,1.2,1.2v6.8"></path> <path class="st0" d="M49.7,57.8v7.2c0,0.6-0.5,1.2-1.2,1.2h-12c-0.6,0-1.2-0.5-1.2-1.2v-7"></path> <circle class="st0" cx="42.5" cy="42.5" r="13.2"></circle> <path class="st0" d="M31.7,34.9l1.2-6.9c0-0.6,0.5-1.2,1.2-1.2H51c0.6,0,1.2,0.5,1.2,1.2l1.2,6.8"></path> <path class="st0" d="M53.3,49.9l-1.2,6.9c0,0.6-0.5,1.2-1.2,1.2H34c-0.6,0-1.2-0.5-1.2-1.2l-1.2-6.8"></path> <polyline class="st0" points="42.4,36.8 42.4,42.9 45.1,40.2 "></polyline> <g> <circle cx="42.6" cy="33.3" r="0.6"></circle> <circle cx="38" cy="34.4" r="0.6"></circle> <circle cx="34.5" cy="37.7" r="0.6"></circle> <circle cx="33.2" cy="42.3" r="0.6"></circle> <circle cx="34.4" cy="46.9" r="0.6"></circle> <circle cx="37.7" cy="50.3" r="0.6"></circle> <circle cx="42.2" cy="51.6" r="0.6"></circle> <circle cx="46.9" cy="50.5" r="0.6"></circle> <circle cx="50.3" cy="47.2" r="0.6"></circle> <circle cx="51.6" cy="42.6" r="0.6"></circle> <circle cx="50.4" cy="38" r="0.6"></circle> <circle cx="47.1" cy="34.6" r="0.6"></circle> </g> </g> <rect x="0.3" class="st3" width="85" height="85"></rect> </svg> 