<?xml version="1.0" encoding="UTF-8"?> <!-- Generator: Adobe Illustrator 22.1.0, SVG Export Plug-In . SVG Version: 6.00 Build 0) --> <svg xmlns="http://www.w3.org/2000/svg" xmlns:xlink="http://www.w3.org/1999/xlink" id="Слой_1" x="0px" y="0px" viewBox="0 0 85 85" style="enable-background:new 0 0 85 85;" xml:space="preserve"> <style type="text/css"> .st0{fill:none;stroke:#000000;stroke-width:0.5982;stroke-miterlimit:10;} .st1{fill:none;stroke:#000000;stroke-width:0.6475;stroke-miterlimit:10;} .st2{fill:none;stroke:#000000;stroke-miterlimit:10;} .st3{opacity:0;fill:#FFFFFF;} .st4{fill:none;stroke:#000000;stroke-width:0.6;stroke-miterlimit:10;} .st5{fill:none;stroke:#000000;stroke-width:0.7055;stroke-miterlimit:10;} </style> <rect class="st3" width="85" height="85"></rect> <g> <g> <line class="st5" x1="35.6" y1="38.9" x2="43.3" y2="25.5"></line> <path class="st5" d="M43.4,25.6h14.2c0.2,0,0.4,0.1,0.5,0.3l5.1,8.9l10,17.5c0.1,0.2,0,0.4-0.3,0.4l-32.7,0"></path> <line class="st5" x1="58.9" y1="52.8" x2="43.3" y2="25.6"></line> <path class="st5" d="M60.4,37.8l-3-5.2c0-0.1-0.1-0.1-0.2-0.1h-5.4c-0.3,0-0.6,0.4-0.4,0.7l2.9,5.1c0.1,0.1,0.2,0.2,0.4,0.2H60 C60.3,38.5,60.5,38.1,60.4,37.8z"></path> <line class="st5" x1="43.3" y1="23.5" x2="43.3" y2="52.6"></line> <line class="st5" x1="57.9" y1="23.5" x2="57.9" y2="25.6"></line> </g> <g> <path class="st5" d="M27.5,47.4h-6.3c-1,0-1.8-0.8-1.8-1.8v-4.7c0-1,0.8-1.8,1.8-1.8h15.2c1,0,1.8,0.8,1.8,1.8v4.7 c0,1-0.8,1.8-1.8,1.8h-6.3"></path> <path class="st5" d="M25.8,39v-1.8c0-0.2,0.2-0.4,0.4-0.4h5.5c0.2,0,0.4,0.2,0.4,0.4v1.7"></path> <path class="st5" d="M23.3,57.3v-6.2c0-0.2,0.2-0.5,0.5-0.5H34c0.2,0,0.5,0.2,0.5,0.5v6.2c0,0.2-0.2,0.5-0.5,0.5H23.8 C23.5,57.7,23.3,57.5,23.3,57.3z"></path> <path class="st5" d="M30,49.1h-2.3c-0.1,0-0.2-0.1-0.2-0.2v-3.2c0-0.1,0.1-0.2,0.2-0.2H30c0.1,0,0.2,0.1,0.2,0.2v3.2 C30.2,49,30.1,49.1,30,49.1z"></path> <line class="st5" x1="23.3" y1="52.6" x2="34.5" y2="52.6"></line> <path class="st5" d="M37.5,48.7h1.9c0.4,0,0.7,0.3,0.7,0.7v7.7c0,0.4-0.3,0.7-0.7,0.7h-1.9"></path> <line class="st5" x1="37.4" y1="52" x2="40.2" y2="52"></line> <path class="st5" d="M20.4,48.7h-1.9c-0.4,0-0.7,0.3-0.7,0.7v7.7c0,0.4,0.3,0.7,0.7,0.7h1.9"></path> <line class="st5" x1="20.4" y1="52" x2="17.7" y2="52"></line> <path class="st5" d="M37.5,47.1v12.3c0,0.4-0.3,0.6-0.6,0.6H21c-0.4,0-0.6-0.3-0.6-0.6V47.1"></path> </g> </g> </svg> 