<?xml version="1.0" encoding="utf-8"?>
<!-- Generator: Adobe Illustrator 19.0.0, SVG Export Plug-In . SVG Version: 6.00 Build 0)  -->
<svg version="1.1" id="Layer_1" xmlns="http://www.w3.org/2000/svg" xmlns:xlink="http://www.w3.org/1999/xlink" x="0px" y="0px"
	 width="46.453px" height="36.038px" viewBox="0 0 46.453 36.038" style="enable-background:new 0 0 46.453 36.038;"
	 xml:space="preserve">
<style type="text/css">
	.st0{fill:#231F20;}
	.st1{fill:#FFCE03;}
</style>
<g id="XMLID_1_">
	<path id="XMLID_2_" class="st0" d="M30.276,13.219c-0.71,0.178-1.355,0.482-1.926,0.874l1.047,1.708
		c0.4-0.29,0.857-0.515,1.365-0.642c0.324-0.082,0.652-0.122,0.979-0.122c0.716,0,1.42,0.193,2.05,0.571
		c0.7,0.419,1.239,1.029,1.572,1.753l1.601-1.252C35.673,13.807,32.958,12.548,30.276,13.219z"/>
	<path id="XMLID_6_" class="st0" d="M28.818,7.399c-1.318,0.33-2.523,0.877-3.604,1.579l1.045,1.705
		c0.911-0.598,1.929-1.065,3.045-1.344c0.813-0.204,1.626-0.301,2.429-0.301c3.403,0,6.577,1.756,8.405,4.589l1.573-1.23
		C38.975,8.296,33.865,6.135,28.818,7.399z"/>
	<path id="XMLID_7_" class="st0" d="M40.988,3.6c-4.124-2.471-8.96-3.189-13.628-2.021c-1.926,0.483-3.693,1.272-5.283,2.285
		l1.046,1.705c1.42-0.909,3-1.618,4.723-2.049c1.298-0.325,2.611-0.486,3.916-0.486c2.861,0,5.68,0.774,8.197,2.283
		c1.982,1.188,3.636,2.764,4.914,4.608l1.579-1.235C45.024,6.656,43.184,4.917,40.988,3.6z"/>
</g>
<path id="XMLID_132_" class="st1" d="M20.812,27.384c-6.774-3.456-10.633-8.658-12.585-12.11l0.19,0.19l3.878-3.878
	c1.035-1.035,1.292-2.616,0.637-3.925l-3.28-6.559C9.045-0.115,7.424-0.378,6.463,0.584L0,7.047c0,0,1.87,23.536,28.991,28.991
	l6.463-6.463c0.961-0.961,0.698-2.581-0.518-3.189l-6.559-3.28c-1.309-0.655-2.89-0.398-3.925,0.637L20.812,27.384z"/>
</svg>
