<?xml version="1.0" encoding="utf-8"?>
<!-- Generator: Adobe Illustrator 19.0.0, SVG Export Plug-In . SVG Version: 6.00 Build 0)  -->
<svg version="1.1" id="Layer_1" xmlns="http://www.w3.org/2000/svg" xmlns:xlink="http://www.w3.org/1999/xlink" x="0px" y="0px"
	 width="17px" height="17px" viewBox="0 0 17 17" style="enable-background:new 0 0 17 17;" xml:space="preserve">
<style type="text/css">
	.st0{fill:#B2B2B2;}
</style>
<path id="XMLID_6_" class="st0" d="M9.914,8.5l6.793-6.793c0.391-0.391,0.391-1.023,0-1.414s-1.023-0.391-1.414,0L8.5,7.086
	L1.707,0.293c-0.391-0.391-1.023-0.391-1.414,0s-0.391,1.023,0,1.414L7.086,8.5l-6.793,6.793c-0.391,0.391-0.391,1.023,0,1.414
	C0.488,16.902,0.744,17,1,17s0.512-0.098,0.707-0.293L8.5,9.914l6.793,6.793C15.488,16.902,15.744,17,16,17s0.512-0.098,0.707-0.293
	c0.391-0.391,0.391-1.023,0-1.414L9.914,8.5z"/>
</svg>
