<?xml version="1.0" encoding="utf-8"?>
<!-- Generator: Adobe Illustrator 19.0.0, SVG Export Plug-In . SVG Version: 6.00 Build 0)  -->
<svg version="1.1" id="Layer_1" xmlns="http://www.w3.org/2000/svg" xmlns:xlink="http://www.w3.org/1999/xlink" x="0px" y="0px"
	 width="97.5px" height="66px" viewBox="0 0 97.5 66" style="enable-background:new 0 0 97.5 66;" xml:space="preserve">
<style type="text/css">
	.st0{fill:#231F20;}
	.st1{fill:#FFCE03;}
	.st2{fill:#FFFFFF;stroke:#231F20;stroke-width:2;stroke-miterlimit:10;}
	.st3{fill:#A6A8AB;}
</style>
<path id="XMLID_50_" class="st0" d="M34.5,52.945C31.455,55.475,27.547,57,23.288,57c-9.689,0-17.572-7.883-17.572-17.571
	s7.883-17.571,17.572-17.571c4.259,0,8.167,1.525,11.212,4.055v-2.501c-3.179-2.232-7.041-3.554-11.212-3.554
	c-10.792,0-19.572,8.779-19.572,19.571S12.496,59,23.288,59c4.171,0,8.033-1.322,11.212-3.554V52.945z"/>
<path id="XMLID_47_" class="st1" d="M34.5,30.659c-2.608-3.329-6.655-5.477-11.212-5.477c-7.868,0-14.247,6.378-14.247,14.247
	c0,7.868,6.378,14.247,14.247,14.247c4.557,0,8.604-2.148,11.212-5.477V30.659z"/>
<g id="XMLID_523_">
	<path id="XMLID_43_" class="st0" d="M9.929,19.143c-5.278,0-9.572-4.294-9.572-9.571S4.651,0,9.929,0S19.5,4.294,19.5,9.571
		S15.207,19.143,9.929,19.143z M9.929,2C5.753,2,2.357,5.396,2.357,9.571s3.396,7.571,7.572,7.571c4.175,0,7.571-3.396,7.571-7.571
		S14.104,2,9.929,2z"/>
</g>
<g id="XMLID_522_">
	<circle class="st1" cx="9.929" cy="9.571" r="5.286"/>
</g>
<g id="XMLID_516_">
	<path class="st2" d="M2.917,40"/>
</g>
<g id="XMLID_232_">
	<path id="XMLID_41_" d="M20.337,42.744c0.823,0.784,2.162,1.435,3.387,1.435c1.033,0,1.99-0.535,1.99-1.646
		c0-2.296-6.468-2.066-6.468-6.18c0-1.972,1.474-3.502,3.597-3.847v-1.799h1.626v1.761c1.225,0.096,2.411,0.536,3.368,1.396
		l-1.071,2.01c-0.746-0.65-1.914-1.187-2.985-1.187c-1.148,0-2.067,0.67-2.067,1.626c0,2.277,6.468,1.876,6.468,6.162
		c0,1.951-1.359,3.616-3.712,3.922v1.761h-1.626v-1.761c-1.377-0.152-2.851-0.765-3.827-1.798L20.337,42.744z"/>
</g>
<g id="XMLID_618_">
	<rect x="35.5" y="13" class="st0" width="60" height="2"/>
</g>
<g id="XMLID_617_">
	<rect x="46.5" y="3" class="st0" width="2" height="8"/>
</g>
<g id="XMLID_613_">
	<rect x="82.5" y="3" class="st0" width="2" height="8"/>
</g>
<g id="XMLID_1_">
	<rect id="XMLID_46_" x="50.5" y="6" class="st0" width="34" height="2"/>
	<path id="XMLID_51_" class="st0" d="M93.5,6h-7v2h7c1.103,0,2,0.897,2,2v52c0,1.103-0.897,2-2,2h-56c-1.103,0-2-0.897-2-2V11
		c0-1.239,1.034-3,2-3h11V6h-11c-2.405,0-4,3.01-4,5v51c0,2.206,1.794,4,4,4h56c2.206,0,4-1.794,4-4V10C97.5,7.794,95.706,6,93.5,6z
		"/>
</g>
<g id="XMLID_526_">
	<path class="st1" d="M87.5,27h-22c-2.209,0-4-1.791-4-4v0c0-2.209,1.791-4,4-4h22c2.209,0,4,1.791,4,4v0
		C91.5,25.209,89.709,27,87.5,27z"/>
</g>
<g id="XMLID_611_">
	<path class="st1" d="M54.5,60h-11c-2.209,0-4-1.791-4-4v0c0-2.209,1.791-4,4-4h11c2.209,0,4,1.791,4,4v0
		C58.5,58.209,56.709,60,54.5,60z"/>
</g>
<g id="XMLID_554_">
	<path class="st1" d="M87.5,38h-44c-2.209,0-4-1.791-4-4v0c0-2.209,1.791-4,4-4h44c2.209,0,4,1.791,4,4v0
		C91.5,36.209,89.709,38,87.5,38z"/>
</g>
<g id="XMLID_555_">
	<path class="st1" d="M87.5,49h-44c-2.209,0-4-1.791-4-4v0c0-2.209,1.791-4,4-4h44c2.209,0,4,1.791,4,4v0
		C91.5,47.209,89.709,49,87.5,49z"/>
</g>
<g id="XMLID_528_">
	<path class="st0" d="M54.5,20c1.654,0,3,1.346,3,3s-1.346,3-3,3s-3-1.346-3-3S52.846,20,54.5,20 M54.5,19c-2.209,0-4,1.791-4,4
		s1.791,4,4,4s4-1.791,4-4S56.709,19,54.5,19L54.5,19z"/>
</g>
<g id="XMLID_529_">
	<path class="st3" d="M65.5,20c1.654,0,3,1.346,3,3s-1.346,3-3,3c-1.654,0-3-1.346-3-3S63.846,20,65.5,20 M65.5,19
		c-2.209,0-4,1.791-4,4s1.791,4,4,4s4-1.791,4-4S67.709,19,65.5,19L65.5,19z"/>
</g>
<g id="XMLID_530_">
	<path class="st3" d="M76.5,20c1.654,0,3,1.346,3,3s-1.346,3-3,3s-3-1.346-3-3S74.846,20,76.5,20 M76.5,19c-2.209,0-4,1.791-4,4
		s1.791,4,4,4s4-1.791,4-4S78.709,19,76.5,19L76.5,19z"/>
</g>
<g id="XMLID_531_">
	<path class="st3" d="M87.5,20c1.654,0,3,1.346,3,3s-1.346,3-3,3s-3-1.346-3-3S85.846,20,87.5,20 M87.5,19c-2.209,0-4,1.791-4,4
		s1.791,4,4,4s4-1.791,4-4S89.709,19,87.5,19L87.5,19z"/>
</g>
<g id="XMLID_648_">
	<path class="st3" d="M43.5,31c1.654,0,3,1.346,3,3s-1.346,3-3,3s-3-1.346-3-3S41.846,31,43.5,31 M43.5,30c-2.209,0-4,1.791-4,4
		s1.791,4,4,4s4-1.791,4-4S45.709,30,43.5,30L43.5,30z"/>
</g>
<g id="XMLID_643_">
	<path class="st3" d="M54.5,31c1.654,0,3,1.346,3,3s-1.346,3-3,3s-3-1.346-3-3S52.846,31,54.5,31 M54.5,30c-2.209,0-4,1.791-4,4
		s1.791,4,4,4s4-1.791,4-4S56.709,30,54.5,30L54.5,30z"/>
</g>
<g id="XMLID_624_">
	<path class="st3" d="M65.5,31c1.654,0,3,1.346,3,3s-1.346,3-3,3c-1.654,0-3-1.346-3-3S63.846,31,65.5,31 M65.5,30
		c-2.209,0-4,1.791-4,4s1.791,4,4,4s4-1.791,4-4S67.709,30,65.5,30L65.5,30z"/>
</g>
<g id="XMLID_612_">
	<path class="st3" d="M76.5,31c1.654,0,3,1.346,3,3s-1.346,3-3,3s-3-1.346-3-3S74.846,31,76.5,31 M76.5,30c-2.209,0-4,1.791-4,4
		s1.791,4,4,4s4-1.791,4-4S78.709,30,76.5,30L76.5,30z"/>
</g>
<g id="XMLID_532_">
	<path class="st3" d="M87.5,31c1.654,0,3,1.346,3,3s-1.346,3-3,3s-3-1.346-3-3S85.846,31,87.5,31 M87.5,30c-2.209,0-4,1.791-4,4
		s1.791,4,4,4s4-1.791,4-4S89.709,30,87.5,30L87.5,30z"/>
</g>
<g id="XMLID_673_">
	<path class="st3" d="M43.5,42c1.654,0,3,1.346,3,3s-1.346,3-3,3s-3-1.346-3-3S41.846,42,43.5,42 M43.5,41c-2.209,0-4,1.791-4,4
		s1.791,4,4,4s4-1.791,4-4S45.709,41,43.5,41L43.5,41z"/>
</g>
<g id="XMLID_668_">
	<path class="st3" d="M54.5,42c1.654,0,3,1.346,3,3s-1.346,3-3,3s-3-1.346-3-3S52.846,42,54.5,42 M54.5,41c-2.209,0-4,1.791-4,4
		s1.791,4,4,4s4-1.791,4-4S56.709,41,54.5,41L54.5,41z"/>
</g>
<g id="XMLID_663_">
	<path class="st3" d="M65.5,42c1.654,0,3,1.346,3,3s-1.346,3-3,3c-1.654,0-3-1.346-3-3S63.846,42,65.5,42 M65.5,41
		c-2.209,0-4,1.791-4,4s1.791,4,4,4s4-1.791,4-4S67.709,41,65.5,41L65.5,41z"/>
</g>
<g id="XMLID_619_">
	<path class="st3" d="M76.5,42c1.654,0,3,1.346,3,3s-1.346,3-3,3s-3-1.346-3-3S74.846,42,76.5,42 M76.5,41c-2.209,0-4,1.791-4,4
		s1.791,4,4,4s4-1.791,4-4S78.709,41,76.5,41L76.5,41z"/>
</g>
<g id="XMLID_533_">
	<path class="st3" d="M87.5,42c1.654,0,3,1.346,3,3s-1.346,3-3,3s-3-1.346-3-3S85.846,42,87.5,42 M87.5,41c-2.209,0-4,1.791-4,4
		s1.791,4,4,4s4-1.791,4-4S89.709,41,87.5,41L87.5,41z"/>
</g>
<g id="XMLID_678_">
	<path class="st3" d="M43.5,53c1.654,0,3,1.346,3,3s-1.346,3-3,3s-3-1.346-3-3S41.846,53,43.5,53 M43.5,52c-2.209,0-4,1.791-4,4
		s1.791,4,4,4s4-1.791,4-4S45.709,52,43.5,52L43.5,52z"/>
</g>
<g id="XMLID_672_">
	<path class="st3" d="M54.5,53c1.654,0,3,1.346,3,3s-1.346,3-3,3s-3-1.346-3-3S52.846,53,54.5,53 M54.5,52c-2.209,0-4,1.791-4,4
		s1.791,4,4,4s4-1.791,4-4S56.709,52,54.5,52L54.5,52z"/>
</g>
<g id="XMLID_666_">
	<path class="st0" d="M65.5,53c1.654,0,3,1.346,3,3s-1.346,3-3,3c-1.654,0-3-1.346-3-3S63.846,53,65.5,53 M65.5,52
		c-2.209,0-4,1.791-4,4s1.791,4,4,4s4-1.791,4-4S67.709,52,65.5,52L65.5,52z"/>
</g>
<g id="XMLID_527_">
	<path class="st0" d="M76.5,53c1.654,0,3,1.346,3,3s-1.346,3-3,3s-3-1.346-3-3S74.846,53,76.5,53 M76.5,52c-2.209,0-4,1.791-4,4
		s1.791,4,4,4s4-1.791,4-4S78.709,52,76.5,52L76.5,52z"/>
</g>
</svg>
