<?xml version="1.0" encoding="utf-8"?>
<!-- Generator: Adobe Illustrator 19.0.0, SVG Export Plug-In . SVG Version: 6.00 Build 0)  -->
<svg version="1.1" id="Layer_1" xmlns="http://www.w3.org/2000/svg" xmlns:xlink="http://www.w3.org/1999/xlink" x="0px" y="0px"
	 width="41.53px" height="42px" viewBox="0 0 41.53 42" style="enable-background:new 0 0 41.53 42;" xml:space="preserve">
<style type="text/css">
	.st0{fill:#FFCE03;}
	.st1{fill:#A6A8AB;}
	.st2{fill:#231F20;}
</style>
<path id="XMLID_17_" class="st0" d="M24.909,31.89c-1.008,0-1.98-0.147-2.909-0.399V36H3V4h19v6.024
	c0.929-0.252,1.901-0.399,2.909-0.399c0.031,0,0.061,0.004,0.091,0.005V3c0-1.417-1.583-3-3-3H3C1.583,0,0,1.583,0,3v36
	c0,1.417,1.583,3,3,3h19c1.417,0,3-1.583,3-3v-7.115C24.969,31.885,24.94,31.89,24.909,31.89z M12.5,40c-0.828,0-1.5-0.672-1.5-1.5
	s0.672-1.5,1.5-1.5s1.5,0.672,1.5,1.5S13.328,40,12.5,40z"/>
<g id="XMLID_119_">
	<path id="XMLID_2_" class="st1" d="M18.338,20.757h-1c0-4.174,3.396-7.57,7.57-7.57c1.586,0,3.105,0.485,4.392,1.403l-0.581,0.814
		c-1.116-0.797-2.434-1.218-3.811-1.218C21.286,14.187,18.338,17.134,18.338,20.757z"/>
</g>
<path id="XMLID_116_" class="st2" d="M6,35"/>
<path id="XMLID_10_" class="st2" d="M41.53,37.348l-8.076-8.075c2.177-2.185,3.525-5.195,3.525-8.516
	c0-6.655-5.415-12.07-12.07-12.07s-12.07,5.415-12.07,12.07c0,6.656,5.415,12.071,12.07,12.071c2.615,0,5.031-0.845,7.01-2.263
	l8.198,8.197L41.53,37.348z M14.838,20.757c0-5.553,4.518-10.07,10.07-10.07s10.07,4.518,10.07,10.07
	c0,5.554-4.518,10.071-10.07,10.071S14.838,26.311,14.838,20.757z"/>
</svg>
