<?xml version="1.0" encoding="utf-8"?>
<!-- Generator: Adobe Illustrator 19.0.0, SVG Export Plug-In . SVG Version: 6.00 Build 0)  -->
<svg version="1.1" id="Layer_1" xmlns="http://www.w3.org/2000/svg" xmlns:xlink="http://www.w3.org/1999/xlink" x="0px" y="0px"
	 width="36.375px" height="42.167px" viewBox="0 0 36.375 42.167" style="enable-background:new 0 0 36.375 42.167;"
	 xml:space="preserve">
<style type="text/css">
	.st0{fill:#FFCE03;}
	.st1{fill:#BBBDBF;}
	.st2{fill:#231F20;}
</style>
<g id="XMLID_8_">
	<path id="XMLID_41_" class="st0" d="M27.25,9.042v-2v-7h-27v33c0,5.056,3.944,9,9,9h27v-33H27.25z M11.75,37.042
		c-3.59,0-6.5-2.91-6.5-6.5s2.91-6.5,6.5-6.5s6.5,2.91,6.5,6.5S15.34,37.042,11.75,37.042z M11.75,21.042c-3.59,0-6.5-2.91-6.5-6.5
		s2.91-6.5,6.5-6.5s6.5,2.91,6.5,6.5S15.34,21.042,11.75,21.042z"/>
</g>
<g id="XMLID_3_">
	<polygon id="XMLID_19_" class="st0" points="36.25,7.042 29.25,0.042 29.25,7.042 	"/>
</g>
<rect id="XMLID_160_" x="21.25" y="32.042" class="st1" width="10" height="1"/>
<rect id="XMLID_162_" x="21.25" y="28.042" class="st1" width="10" height="1"/>
<rect id="XMLID_163_" x="21.25" y="16.042" class="st1" width="10" height="1"/>
<rect id="XMLID_161_" x="21.25" y="12.042" class="st1" width="10" height="1"/>
<g id="XMLID_1_">
	<path id="XMLID_4_" class="st2" d="M17.491,8.391l-5.298,6.18l-2.236-2.236c-0.391-0.391-1.023-0.391-1.414,0s-0.391,1.023,0,1.414
		l3.764,3.764l6.702-7.82c0.36-0.419,0.312-1.051-0.108-1.41C18.482,7.924,17.85,7.972,17.491,8.391z"/>
	<path id="XMLID_15_" class="st2" d="M14.957,27.335c-0.391-0.391-1.023-0.391-1.414,0l-1.793,1.793l-1.793-1.793
		c-0.391-0.391-1.023-0.391-1.414,0s-0.391,1.023,0,1.414l1.793,1.793l-1.793,1.793c-0.391,0.391-0.391,1.023,0,1.414
		c0.195,0.195,0.451,0.293,0.707,0.293s0.512-0.098,0.707-0.293l1.793-1.793l1.793,1.793c0.195,0.195,0.451,0.293,0.707,0.293
		s0.512-0.098,0.707-0.293c0.391-0.391,0.391-1.023,0-1.414l-1.793-1.793l1.793-1.793C15.348,28.358,15.348,27.725,14.957,27.335z"
		/>
	<rect id="XMLID_16_" x="21.25" y="28.042" class="st2" width="10" height="2"/>
	<rect id="XMLID_17_" x="21.25" y="32.042" class="st2" width="10" height="2"/>
	<rect id="XMLID_18_" x="21.25" y="12.042" class="st2" width="10" height="2"/>
	<rect id="XMLID_20_" x="21.25" y="16.042" class="st2" width="10" height="2"/>
</g>
</svg>
