<svg id="Layer_1" data-name="Layer 1" xmlns="http://www.w3.org/2000/svg" viewBox="0 0 21.75 20.333">
    <polygon class="cls-1" fill="#ffdf12" points="16.224 18.352 11.061 16.1 5.91 18.381 6.456 12.774 2.695 8.58 8.196 7.367 11.023 2.494 13.877 7.351 19.384 8.534 15.647 12.749 16.224 18.352"/>
    <path class="cls-1" fill="#ffdf12"  d="M4.748,19.99l.67-6.875L.807,7.972,7.552,6.485,11.018.511l3.5,5.955,6.753,1.45-4.583,5.167.708,6.87-6.331-2.761Zm-.165-10.8,2.911,3.245-.423,4.34,3.986-1.766,4,1.743-.446-4.337L17.5,9.152l-4.263-.915L11.028,4.478,8.841,8.249Z"/>
</svg>