<?xml version="1.0" encoding="UTF-8" ?>
<!DOCTYPE svg PUBLIC "-//W3C//DTD SVG 1.1//EN" "http://www.w3.org/Graphics/SVG/1.1/DTD/svg11.dtd">
<svg width="75pt" height="70pt" viewBox="0 0 75 70" version="1.1" xmlns="http://www.w3.org/2000/svg">
<g id="#1d191ad2">
<path fill="#afafaf" opacity="0.82" d=" M 22.88 16.27 C 25.64 14.38 25.63 8.72 29.92 9.38 C 36.06 9.54 42.23 9.08 48.34 9.60 C 50.58 11.30 50.88 14.68 53.18 16.28 C 57.47 17.42 62.01 16.55 66.29 17.68 C 67.76 18.05 69.02 19.40 68.98 20.97 C 69.10 33.37 68.86 45.77 69.09 58.17 C 67.70 59.57 66.03 60.84 63.93 60.60 C 46.60 60.62 29.27 60.62 11.95 60.59 C 9.33 60.88 6.59 58.89 7.00 56.07 C 6.99 44.69 7.01 33.31 6.99 21.94 C 6.77 20.09 7.91 18.22 9.70 17.68 C 14.01 16.54 18.58 17.43 22.88 16.27 M 24.67 18.55 C 19.95 19.07 15.15 18.89 10.48 19.81 C 8.68 20.33 9.10 22.56 9.01 23.98 C 9.04 34.70 8.90 45.42 9.08 56.13 C 8.88 58.26 11.47 58.47 12.99 58.41 C 30.01 58.36 47.03 58.43 64.04 58.37 C 65.36 58.54 67.14 57.72 66.94 56.16 C 67.00 44.47 67.13 32.76 66.87 21.08 C 66.64 20.80 66.18 20.25 65.96 19.97 C 61.22 18.76 56.22 19.13 51.38 18.58 C 49.88 16.32 48.95 13.55 46.92 11.72 C 40.92 11.37 34.90 11.79 28.89 11.54 C 27.38 13.81 25.99 16.16 24.67 18.55 Z" />
<path fill="#afafaf" opacity="0.82" d=" M 33.43 23.53 C 41.96 20.65 52.15 26.78 52.97 35.87 C 54.29 43.55 48.73 51.45 41.07 52.77 C 33.20 54.64 24.67 48.98 23.23 41.07 C 21.57 33.73 26.18 25.65 33.43 23.53 M 34.45 25.60 C 28.99 27.08 25.20 32.47 25.02 38.03 C 25.24 43.99 29.67 49.44 35.56 50.66 C 44.19 52.76 53.01 43.70 50.61 35.12 C 49.11 28.19 41.27 23.30 34.45 25.60 Z" />
</g>
</svg>
