<svg xmlns="http://www.w3.org/2000/svg" width="20" height="30" viewBox="0 0 20 30">
  <g fill="none" fill-rule="evenodd" transform="translate(1 1)">
    <path stroke="#4E5459" stroke-width="2" d="M14,28 L4,28 C1.791,28 0,26.209 0,24 L0,4 C0,1.791 1.791,0 4,0 L14,0 C16.209,0 18,1.791 18,4 L18,24 C18,26.209 16.209,28 14,28 Z"/>
    <path fill="#4E5459" d="M10 24C10 24.553 9.552 25 9 25 8.448 25 8 24.553 8 24 8 23.447 8.448 23 9 23 9.552 23 10 23.447 10 24M10.5 4L7.5 4C7.224 4 7 3.776 7 3.5 7 3.224 7.224 3 7.5 3L10.5 3C10.776 3 11 3.224 11 3.5 11 3.776 10.776 4 10.5 4"/>
  </g>
</svg>
