<?xml version="1.0" encoding="utf-8"?>
<!-- Generator: Adobe Illustrator 19.0.0, SVG Export Plug-In . SVG Version: 6.00 Build 0)  -->
<svg version="1.1" id="Layer_1" xmlns="http://www.w3.org/2000/svg" xmlns:xlink="http://www.w3.org/1999/xlink" x="0px" y="0px"
	 width="22.042px" height="22.042px" viewBox="0 0 22.042 22.042" style="enable-background:new 0 0 22.042 22.042;"
	 xml:space="preserve">
<g>
	<path d="M15.929,0H6.071C2.723,0,0,2.723,0,6.071v9.857C0,19.277,2.723,22,6.071,22h9.858C19.277,22,22,19.276,22,15.929V6.071
		C22,2.723,19.277,0,15.929,0L15.929,0z M20.048,15.929c0,2.272-1.848,4.119-4.119,4.119H6.071c-2.272,0-4.119-1.848-4.119-4.119
		V6.071c0-2.272,1.848-4.119,4.119-4.119h9.858c2.272,0,4.119,1.848,4.119,4.119V15.929z M20.048,15.929"/>
	<path d="M11,5.332c-3.126,0-5.669,2.543-5.669,5.668c0,3.126,2.543,5.669,5.669,5.669c3.126,0,5.669-2.543,5.669-5.669
		C16.669,7.875,14.126,5.332,11,5.332L11,5.332z M11,14.716c-2.049,0-3.717-1.667-3.717-3.716c0-2.049,1.667-3.717,3.717-3.717
		S14.717,8.951,14.717,11C14.717,13.05,13.049,14.716,11,14.716L11,14.716z M11,14.716"/>
	<path d="M16.907,3.676c-0.376,0-0.745,0.152-1.011,0.419c-0.268,0.266-0.421,0.635-0.421,1.013c0,0.376,0.154,0.745,0.421,1.012
		c0.265,0.266,0.635,0.419,1.011,0.419c0.377,0,0.745-0.153,1.012-0.419c0.267-0.267,0.419-0.637,0.419-1.012
		c0-0.378-0.152-0.747-0.419-1.013C17.653,3.828,17.284,3.676,16.907,3.676L16.907,3.676z M16.907,3.676"/>
</g>
</svg>
