<?xml version="1.0" encoding="utf-8"?>
<!-- Generator: Adobe Illustrator 19.0.0, SVG Export Plug-In . SVG Version: 6.00 Build 0)  -->
<svg version="1.1" id="Layer_1" xmlns="http://www.w3.org/2000/svg" xmlns:xlink="http://www.w3.org/1999/xlink" x="0px" y="0px"
	 width="43px" height="53.813px" viewBox="-23 -50 43 53.813" style="enable-background:new -23 -50 43 53.813;"
	 xml:space="preserve">
<style type="text/css">
	.st0{fill:#464646;}
	.st1{fill:#FFCE00;}
</style>
<path id="XMLID_180_" class="st0" d="M-1.607-50c-11.578,0-20.964,9.386-20.964,20.964S-1.607,3.364-1.607,3.364
	s20.964-20.821,20.964-32.399S9.971-50-1.607-50z"/>
<g>
	<path class="st1" d="M10.649-40.382c-0.203-0.138-0.443-0.211-0.689-0.211H7.104c-0.637,0-1.232,0.316-1.589,0.843L-3.86-25.913
		l-5.122-9.442c-0.214-0.395-0.628-0.642-1.078-0.642h-3.12c-0.677,0-1.226,0.549-1.226,1.226c0,0.204,0.051,0.405,0.148,0.585
		l7.39,13.623c0.214,0.395,0.628,0.642,1.078,0.642h3.41c0.407,0,0.787-0.202,1.015-0.539l12.342-18.217
		C11.358-39.238,11.211-40.002,10.649-40.382z"/>
	<path class="st1" d="M-3.084-18.766h-2.597c-0.799,0-1.546,0.396-1.995,1.058l-2.136,3.198c-0.138,0.203-0.211,0.443-0.211,0.689
		c0,0.678,0.55,1.228,1.228,1.228h2.597c0.799,0,1.546-0.396,1.995-1.058l2.136-3.198c0.138-0.203,0.211-0.443,0.211-0.689
		C-1.856-18.216-2.406-18.766-3.084-18.766z"/>
</g>
</svg>
