<svg xmlns="http://www.w3.org/2000/svg" width="36" height="36" viewBox="0 0 36 36">
    <g fill="#000" fill-rule="evenodd">
        <path d="M23.596 29.99c.105.005.206.01.312.01 1.13 0 2.072-.407 2.813-1.207l.019-.02c.264-.316.562-.603.88-.905.216-.206.437-.417.644-.637.985-1.025.98-2.324-.01-3.31l-2.74-2.731c-.471-.49-1.034-.748-1.63-.748-.591 0-1.158.254-1.644.738l-1.62 1.614c-.144-.081-.293-.153-.438-.225a6.75 6.75 0 0 1-.5-.268c-1.485-.939-2.831-2.165-4.12-3.742-.649-.814-1.077-1.495-1.38-2.194.424-.383.818-.78 1.198-1.169.139-.139.278-.283.423-.426 1.028-1.026 1.028-2.295 0-3.316l-1.36-1.356c-.16-.158-.313-.316-.467-.47-.303-.306-.615-.627-.928-.914-.471-.47-1.029-.714-1.62-.714-.587 0-1.154.244-1.644.714L8.077 10.41a3.54 3.54 0 0 0-1.058 2.256c-.086 1.093.116 2.252.635 3.651.803 2.16 2.01 4.168 3.798 6.315 2.178 2.587 4.793 4.632 7.783 6.075 1.14.54 2.664 1.173 4.36 1.283zM12.36 21.88c-1.702-2.042-2.842-3.939-3.597-5.97-.466-1.25-.639-2.223-.567-3.148a2.342 2.342 0 0 1 .717-1.523l1.697-1.692c.26-.249.543-.378.822-.378.274 0 .543.13.802.383.303.283.597.58.904.891.154.159.313.321.476.48l1.36 1.355c.559.556.559 1.102 0 1.658-.143.144-.288.288-.427.431-.423.427-.817.829-1.255 1.217l-.024.024c-.39.388-.332.762-.235 1.04.004.014.01.024.014.038.35.843.846 1.643 1.606 2.602 1.37 1.681 2.812 2.99 4.408 4 .197.124.404.23.606.33.183.091.35.178.5.269l.053.029c.154.076.303.114.456.114.38 0 .62-.24.698-.32l1.706-1.701c.26-.259.539-.393.813-.393.336 0 .61.21.788.393l2.75 2.74c.673.67.365 1.275-.014 1.672-.193.206-.395.398-.606.604-.322.307-.654.627-.957.987-.52.556-1.134.814-1.937.814-.077 0-.159-.005-.236-.01-1.495-.095-2.88-.675-3.923-1.168-2.846-1.366-5.331-3.306-7.398-5.769zM18.592 11.007a.508.508 0 0 0-.17 1 5.572 5.572 0 0 1 3.007 1.56 5.564 5.564 0 0 1 1.56 3.01c.04.249.256.423.501.423.03 0 .058-.004.087-.008a.504.504 0 0 0 .415-.586 6.562 6.562 0 0 0-1.842-3.556 6.567 6.567 0 0 0-3.558-1.843zM28.41 18a.583.583 0 0 0 .58-.686 12.502 12.502 0 0 0-3.516-6.788 12.526 12.526 0 0 0-6.79-3.518.587.587 0 0 0-.197 1.155c2.334.398 4.461 1.5 6.153 3.193a11.365 11.365 0 0 1 3.191 6.155.586.586 0 0 0 .58.489z"/>
    </g>
</svg>
