<svg xmlns="http://www.w3.org/2000/svg" xmlns:xlink="http://www.w3.org/1999/xlink" width="32" height="32" viewBox="0 0 32 32">
    <defs>
        <path id="a" d="M0 0h19v20H0z"/>
    </defs>
    <g fill="none" fill-rule="evenodd" transform="translate(7 6)">
        <mask id="b" fill="#fff">
            <use xlink:href="#a"/>
        </mask>
        <path fill="#000" d="M18.887 7.442a.382.382 0 0 0-.547 0L7.812 18.016a4.089 4.089 0 0 1-2.918 1.209 4.084 4.084 0 0 1-2.918-1.21 4.123 4.123 0 0 1-1.203-2.93c0-1.11.427-2.15 1.203-2.93L12.505 1.579c1.117-1.121 2.872-1.054 4.082.161 1.207 1.215 1.277 2.976.16 4.098l-9.894 9.936a1.418 1.418 0 0 1-2.006 0 1.431 1.431 0 0 1 0-2.017l6.7-6.73a.39.39 0 0 0 0-.548.386.386 0 0 0-.546 0l-6.7 6.73a2.211 2.211 0 0 0 0 3.112 2.188 2.188 0 0 0 3.099 0l9.891-9.934c1.43-1.436 1.36-3.669-.158-5.196-1.52-1.524-3.745-1.594-5.173-.16L1.43 11.608A4.888 4.888 0 0 0 0 15.085a4.89 4.89 0 0 0 1.43 3.48A4.846 4.846 0 0 0 4.894 20a4.845 4.845 0 0 0 3.462-1.435l10.53-10.576a.387.387 0 0 0 0-.547z" mask="url(#b)"/>
    </g>
</svg>
