<?xml version="1.0" encoding="utf-8"?>
<!-- Generator: Adobe Illustrator 19.0.0, SVG Export Plug-In . SVG Version: 6.00 Build 0)  -->
<svg version="1.1" id="Layer_1" xmlns="http://www.w3.org/2000/svg" xmlns:xlink="http://www.w3.org/1999/xlink" x="0px" y="0px"
	 width="23.997px" height="24.997px" viewBox="0 0 23.997 24.997" style="enable-background:new 0 0 23.997 24.997;"
	 xml:space="preserve">
<style type="text/css">
	.st0{fill:#7D3DAF;}
	.st1{fill:#FFFFFF;}
</style>
<g>
	<path class="st0" d="M17.399,2.658c-3.594-0.684-7.239-0.684-10.835,0c-1.572,0.35-3.55,2.246-3.937,3.771
		c-0.643,2.95-0.643,5.941,0,8.891c0.387,1.525,2.365,3.421,3.937,3.771l0.001,0c0.07,0.014,0.121,0.074,0.121,0.146v4.322
		c0,0.216,0.264,0.323,0.414,0.166l2.053-2.107c0,0,1.636-1.679,1.93-1.981c0.029-0.03,0.069-0.046,0.11-0.045
		c2.073,0.057,4.148-0.11,6.206-0.501c1.572-0.35,3.552-2.246,3.937-3.771c0.644-2.95,0.644-5.941,0-8.891
		C20.951,4.904,18.972,3.008,17.399,2.658z"/>
	<path class="st1" d="M23.421,5.927c-0.578-2.338-3.184-4.845-5.578-5.367l-0.027-0.005c-3.872-0.739-7.797-0.739-11.668,0
		L6.121,0.559c-2.393,0.522-4.999,3.03-5.578,5.367L0.536,5.955c-0.715,3.264-0.715,6.574,0,9.838l0.007,0.029
		c0.554,2.237,2.966,4.63,5.271,5.288v2.609c0,0.944,1.151,1.408,1.805,0.727l2.643-2.748c0.573,0.032,1.147,0.05,1.721,0.05
		c1.949,0,3.899-0.184,5.834-0.553l0.027-0.006c2.394-0.522,5-3.03,5.578-5.367l0.007-0.029c0.715-3.264,0.715-6.574,0-9.838
		L23.421,5.927z M21.336,15.32c-0.386,1.525-2.365,3.421-3.937,3.771c-2.058,0.392-4.133,0.559-6.206,0.501
		c-0.041-0.001-0.081,0.015-0.11,0.045c-0.294,0.302-1.93,1.981-1.93,1.981l-2.053,2.107c-0.15,0.157-0.414,0.05-0.414-0.166v-4.322
		c0-0.071-0.051-0.132-0.121-0.146l-0.001,0c-1.572-0.35-3.55-2.246-3.937-3.771c-0.643-2.95-0.643-5.941,0-8.891
		c0.387-1.525,2.365-3.421,3.937-3.771c3.595-0.684,7.24-0.684,10.835,0c1.573,0.35,3.552,2.246,3.937,3.771
		C21.981,9.379,21.981,12.369,21.336,15.32z"/>
	<path class="st1" d="M15.403,17.315c-0.242-0.073-0.472-0.122-0.686-0.211c-2.217-0.92-4.257-2.106-5.874-3.925
		c-0.919-1.034-1.638-2.202-2.247-3.438c-0.288-0.586-0.531-1.195-0.779-1.8C5.592,7.388,5.925,6.818,6.275,6.402
		c0.329-0.39,0.752-0.689,1.21-0.909c0.358-0.172,0.71-0.072,0.971,0.23C9.02,6.379,9.539,7.067,9.958,7.827
		c0.258,0.467,0.188,1.038-0.28,1.356C9.565,9.26,9.461,9.351,9.355,9.438c-0.093,0.077-0.18,0.154-0.244,0.257
		c-0.116,0.19-0.122,0.413-0.047,0.619c0.577,1.586,1.549,2.819,3.146,3.483c0.256,0.106,0.512,0.23,0.806,0.196
		c0.493-0.058,0.652-0.598,0.998-0.881c0.337-0.276,0.769-0.28,1.132-0.049c0.364,0.23,0.716,0.477,1.066,0.727
		c0.344,0.245,0.686,0.485,1.004,0.764c0.305,0.269,0.41,0.621,0.238,0.986c-0.314,0.668-0.772,1.223-1.432,1.578
		C15.836,17.218,15.613,17.25,15.403,17.315C15.161,17.241,15.613,17.25,15.403,17.315L15.403,17.315z M15.403,17.315"/>
	<path class="st1" d="M11.988,4.73c2.9,0.081,5.282,2.006,5.792,4.873c0.087,0.489,0.118,0.988,0.157,1.484
		c0.016,0.209-0.102,0.407-0.327,0.409c-0.232,0.003-0.337-0.191-0.352-0.4c-0.03-0.413-0.05-0.827-0.108-1.236
		c-0.3-2.16-2.023-3.948-4.173-4.331c-0.324-0.058-0.655-0.073-0.983-0.107c-0.207-0.022-0.478-0.034-0.524-0.292
		c-0.039-0.216,0.143-0.388,0.349-0.399C11.876,4.727,11.932,4.73,11.988,4.73C14.888,4.811,11.932,4.73,11.988,4.73L11.988,4.73z
		 M11.988,4.73"/>
	<path class="st1" d="M16.395,10.443c-0.005,0.036-0.007,0.121-0.028,0.202c-0.077,0.291-0.518,0.327-0.62,0.034
		c-0.03-0.087-0.035-0.187-0.035-0.28c-0.001-0.614-0.135-1.228-0.444-1.762c-0.319-0.549-0.805-1.011-1.375-1.291
		c-0.345-0.169-0.718-0.274-1.096-0.337c-0.165-0.027-0.332-0.044-0.498-0.067c-0.201-0.028-0.309-0.156-0.299-0.354
		c0.009-0.186,0.145-0.32,0.347-0.308c0.665,0.038,1.308,0.182,1.9,0.495c1.203,0.637,1.89,1.643,2.091,2.986
		c0.009,0.061,0.024,0.121,0.028,0.182C16.377,10.093,16.383,10.244,16.395,10.443C16.39,10.479,16.383,10.244,16.395,10.443
		L16.395,10.443z M16.395,10.443"/>
	<path class="st1" d="M14.592,10.372c-0.243,0.004-0.373-0.13-0.397-0.353c-0.017-0.155-0.031-0.312-0.068-0.463
		c-0.073-0.297-0.231-0.573-0.481-0.755c-0.118-0.086-0.252-0.149-0.392-0.189c-0.178-0.052-0.363-0.037-0.541-0.081
		c-0.193-0.047-0.299-0.203-0.269-0.384c0.028-0.164,0.188-0.293,0.368-0.28c1.124,0.081,1.928,0.662,2.042,1.986
		c0.008,0.093,0.018,0.192-0.003,0.281C14.815,10.288,14.702,10.365,14.592,10.372C14.349,10.377,14.702,10.365,14.592,10.372
		L14.592,10.372z M14.592,10.372"/>
</g>
</svg>
