<?xml version="1.0" encoding="utf-8"?>
<!-- Generator: Adobe Illustrator 19.0.0, SVG Export Plug-In . SVG Version: 6.00 Build 0)  -->
<svg version="1.1" id="Layer_1" xmlns="http://www.w3.org/2000/svg" xmlns:xlink="http://www.w3.org/1999/xlink" x="0px" y="0px"
	 width="18.998px" height="10.999px" viewBox="0 0 18.998 10.999" style="enable-background:new 0 0 18.998 10.999;"
	 xml:space="preserve">
<g>
	<path d="M18.775,9.728c-0.023-0.049-0.044-0.09-0.064-0.123c-0.327-0.59-0.954-1.313-1.877-2.171l-0.019-0.02l-0.01-0.009
		l-0.01-0.01h-0.009c-0.419-0.4-0.685-0.669-0.796-0.806c-0.203-0.262-0.249-0.528-0.138-0.796c0.079-0.203,0.373-0.632,0.885-1.287
		c0.269-0.347,0.482-0.626,0.638-0.835c1.134-1.507,1.625-2.47,1.474-2.889L18.79,0.682c-0.04-0.059-0.141-0.113-0.304-0.162
		c-0.164-0.049-0.373-0.058-0.629-0.025l-2.831,0.019C14.98,0.499,14.914,0.5,14.829,0.52c-0.085,0.019-0.128,0.029-0.128,0.029
		l-0.049,0.025l-0.039,0.029c-0.033,0.019-0.069,0.054-0.108,0.103c-0.039,0.049-0.072,0.107-0.098,0.172
		c-0.309,0.793-0.658,1.53-1.052,2.211c-0.243,0.406-0.465,0.759-0.668,1.057c-0.203,0.298-0.373,0.518-0.511,0.658
		c-0.138,0.141-0.262,0.254-0.373,0.339c-0.112,0.085-0.197,0.121-0.256,0.108c-0.059-0.014-0.115-0.027-0.167-0.04
		c-0.092-0.059-0.166-0.139-0.221-0.241c-0.056-0.101-0.094-0.229-0.113-0.383c-0.019-0.154-0.031-0.286-0.035-0.398
		c-0.003-0.111-0.001-0.269,0.005-0.472c0.006-0.203,0.01-0.341,0.01-0.413c0-0.249,0.005-0.52,0.014-0.811
		c0.01-0.292,0.018-0.522,0.025-0.693c0.006-0.17,0.01-0.35,0.01-0.541c0-0.19-0.012-0.339-0.035-0.447
		c-0.022-0.108-0.057-0.213-0.103-0.315c-0.046-0.101-0.113-0.18-0.201-0.236c-0.088-0.056-0.198-0.1-0.329-0.133
		C10.06,0.053,9.618,0.01,9.081,0.003C7.862-0.01,7.079,0.069,6.732,0.239C6.594,0.311,6.47,0.41,6.358,0.534
		C6.241,0.678,6.224,0.757,6.309,0.77c0.393,0.059,0.671,0.2,0.836,0.422l0.059,0.118C7.25,1.396,7.296,1.546,7.341,1.762
		C7.387,1.979,7.416,2.218,7.429,2.48c0.033,0.478,0.033,0.888,0,1.229c-0.032,0.34-0.063,0.606-0.093,0.796
		c-0.029,0.19-0.074,0.344-0.133,0.462c-0.059,0.118-0.098,0.19-0.118,0.216C7.066,5.209,7.049,5.225,7.036,5.231
		C6.951,5.264,6.863,5.281,6.771,5.281c-0.091,0-0.203-0.046-0.334-0.138C6.306,5.051,6.17,4.925,6.029,4.764
		c-0.141-0.16-0.3-0.384-0.477-0.673c-0.177-0.288-0.36-0.628-0.55-1.022L4.845,2.784c-0.098-0.183-0.233-0.45-0.403-0.801
		c-0.17-0.35-0.321-0.689-0.452-1.017C3.938,0.829,3.859,0.724,3.754,0.652L3.705,0.622C3.672,0.596,3.62,0.569,3.548,0.539
		C3.475,0.509,3.401,0.488,3.322,0.475L0.629,0.494c-0.275,0-0.462,0.062-0.56,0.187L0.029,0.74C0.01,0.773,0,0.825,0,0.897
		C0,0.97,0.019,1.058,0.059,1.163c0.393,0.923,0.82,1.815,1.283,2.673c0.462,0.859,0.863,1.55,1.203,2.074
		c0.341,0.524,0.688,1.019,1.042,1.484c0.354,0.465,0.588,0.763,0.703,0.895c0.115,0.131,0.205,0.229,0.27,0.294l0.246,0.236
		c0.157,0.157,0.388,0.346,0.693,0.565c0.304,0.22,0.642,0.436,1.012,0.649c0.37,0.213,0.801,0.386,1.293,0.521
		c0.491,0.134,0.969,0.188,1.435,0.162h1.13c0.229-0.019,0.403-0.092,0.521-0.216l0.039-0.049c0.026-0.04,0.051-0.1,0.074-0.182
		c0.023-0.082,0.035-0.172,0.035-0.27c-0.006-0.282,0.015-0.535,0.064-0.762c0.049-0.226,0.105-0.396,0.167-0.511
		c0.062-0.115,0.132-0.211,0.211-0.29c0.078-0.079,0.134-0.126,0.167-0.142c0.032-0.017,0.058-0.028,0.078-0.035
		c0.157-0.052,0.342-0.001,0.555,0.153c0.213,0.154,0.412,0.344,0.6,0.57c0.187,0.226,0.411,0.48,0.673,0.762
		c0.263,0.281,0.492,0.491,0.688,0.629l0.197,0.118c0.131,0.079,0.302,0.151,0.511,0.216c0.21,0.066,0.393,0.082,0.55,0.049
		l2.516-0.04c0.248,0,0.442-0.041,0.579-0.123c0.138-0.082,0.219-0.172,0.246-0.27c0.027-0.098,0.028-0.21,0.005-0.335
		C18.82,9.864,18.797,9.777,18.775,9.728L18.775,9.728z M18.775,9.728"/>
</g>
</svg>
