<?xml version="1.0" encoding="UTF-8"?> <!-- Generator: Adobe Illustrator 23.0.2, SVG Export Plug-In . SVG Version: 6.00 Build 0) --> <svg xmlns="http://www.w3.org/2000/svg" xmlns:xlink="http://www.w3.org/1999/xlink" id="Слой_1" x="0px" y="0px" viewBox="0 0 80 80" style="enable-background:new 0 0 80 80;" xml:space="preserve"> <style type="text/css"> .st0{fill:#FFFFFF;fill-opacity:0;} .st1{fill:none;stroke:#000000;stroke-width:0.7055;stroke-miterlimit:10;} </style> <rect class="st0" width="80" height="80"></rect> <g> <g> <line class="st1" x1="33.5" y1="36.6" x2="40.8" y2="24"></line> <path class="st1" d="M40.8,24.1h13.4c0.2,0,0.4,0.1,0.5,0.3l4.8,8.4l9.4,16.5c0.1,0.2,0,0.4-0.3,0.4H37.8"></path> <line class="st1" x1="55.4" y1="49.7" x2="40.8" y2="24.1"></line> <path class="st1" d="M56.8,35.6L54,30.7c0-0.1-0.1-0.1-0.2-0.1h-5.1c-0.3,0-0.6,0.4-0.4,0.7l2.7,4.8c0.1,0.1,0.2,0.2,0.4,0.2h5 C56.8,36.2,56.9,35.9,56.8,35.6z"></path> <line class="st1" x1="40.8" y1="22.1" x2="40.8" y2="49.5"></line> <line class="st1" x1="54.5" y1="22.1" x2="54.5" y2="24.1"></line> </g> <g> <path class="st1" d="M25.9,44.6H20c-0.9,0-1.7-0.8-1.7-1.7v-4.4c0-0.9,0.8-1.7,1.7-1.7h14.3c0.9,0,1.7,0.8,1.7,1.7v4.4 c0,0.9-0.8,1.7-1.7,1.7h-5.9"></path> <path class="st1" d="M24.3,36.7V35c0-0.2,0.2-0.4,0.4-0.4h5.2c0.2,0,0.4,0.2,0.4,0.4v1.6"></path> <path class="st1" d="M21.9,53.9v-5.8c0-0.2,0.2-0.5,0.5-0.5H32c0.2,0,0.5,0.2,0.5,0.5v5.8c0,0.2-0.2,0.5-0.5,0.5h-9.6 C22.1,54.3,21.9,54.1,21.9,53.9z"></path> <path class="st1" d="M28.2,46.2h-2.2c-0.1,0-0.2-0.1-0.2-0.2v-3c0-0.1,0.1-0.2,0.2-0.2h2.2c0.1,0,0.2,0.1,0.2,0.2v3 C28.4,46.1,28.3,46.2,28.2,46.2z"></path> <line class="st1" x1="21.9" y1="49.5" x2="32.5" y2="49.5"></line> <path class="st1" d="M35.3,45.8h1.8c0.4,0,0.7,0.3,0.7,0.7v7.2c0,0.4-0.3,0.7-0.7,0.7h-1.8"></path> <line class="st1" x1="35.2" y1="48.9" x2="37.8" y2="48.9"></line> <path class="st1" d="M19.2,45.8h-1.8c-0.4,0-0.7,0.3-0.7,0.7v7.2c0,0.4,0.3,0.7,0.7,0.7h1.8"></path> <line class="st1" x1="19.2" y1="48.9" x2="16.7" y2="48.9"></line> <path class="st1" d="M35.3,44.3v11.6c0,0.4-0.3,0.6-0.6,0.6h-15c-0.4,0-0.6-0.3-0.6-0.6V44.3"></path> </g> </g> </svg> 