<svg id="Layer_1" data-name="Layer 1" xmlns="http://www.w3.org/2000/svg" viewBox="0 0 43.75 54.375">
    <path class="cls-1" d="M32.752,29.366,26.766,16.218a2.078,2.078,0,0,0-1.672-1.2,2.533,2.533,0,0,0-.579-.072H18.682a2.537,2.537,0,0,0-.57.069,2.078,2.078,0,0,0-1.711,1.2L10.416,29.366c-.474,1.042-.254,1.647.527,2.146a3.041,3.041,0,0,0,3.647-1.269l1.4-3.076V47.433a2.567,2.567,0,0,0,5.134,0V35.5h.7V47.6a2.567,2.567,0,0,0,5.134,0l.012-20.557,1.608,3.2a3.041,3.041,0,0,0,3.647,1.269C33.006,31.013,33.226,30.407,32.752,29.366Z"/>
    <circle class="cls-1" cx="21.584" cy="9.063" r="4.792"/>
</svg>