<svg id="Layer_1" data-name="Layer 1" xmlns="http://www.w3.org/2000/svg" viewBox="0 0 43.75 54.375">
    <path class="cls-1" fill="#7286ad" d="M20.387,51.693C12.11,40.764,1.58,32.783,2.013,20.346A19,19,0,0,1,40,21.084c0,11.93-10.276,19.9-18.388,30.609A.765.765,0,0,1,20.387,51.693Z"/>
    <path class="cls-2" fill="#ffffff" d="M26.989,29.015l-5.166-6.645L26.769,17.4a1.761,1.761,0,0,0,0-2.475,1.742,1.742,0,0,0-2.464,0l-5.992,6.019V16.09a1.742,1.742,0,1,0-3.485,0v14a1.742,1.742,0,1,0,3.485,0V25.9l1.027-1.032,4.9,6.305a1.742,1.742,0,0,0,2.446.3A1.76,1.76,0,0,0,26.989,29.015Z"/>
</svg>